# xmcd
#
# Track frame offsets: 
#        150
#        12336
#        26435
#        39308
#        49280
#        60307
#        71794
#        81735
#        93640
#        111229
#        121939
#        135421
#        147987
#        159122
#        174691
#        187273
#
# Disc length: 2650 seconds
#
# Revision: 1
# Processed by: cddbd v1.5.2PL0 Copyright (c) Steve Scherf et al.
# Submitted via: ExactAudioCopyFreeDBPlugin 1.0
#
DISCID=e10a5810
DTITLE=Various Artist - The Greatest Country-Songs
DYEAR=2008
DGENRE=Country
TTITLE0=Johnny Cash - I walk the line
TTITLE1=Lynn Anderson - rose garden
TTITLE2=Dave Dudley - Girl on the billboard
TTITLE3=Johnny Doe - Ring of fire
TTITLE4=Bobby Bond - King of he road
TTITLE5=Jim Reeves - Mexican Joe
TTITLE6=Johnny Cash - Get rhythm
TTITLE7=Patsy Cline - Walking after midnight
TTITLE8=Johnny Doe - A boy named Sue
TTITLE9=Dave Dudley - Six days on the road
TTITLE10=Faron Young - Four in themorning
TTITLE11=Lynn Anderson - Stand by your man
TTITLE12=Jim Reeves - Penny Candy
TTITLE13=Henson Cargill - Lucille
TTITLE14=Johnny Cash - Folsom prison blues
TTITLE15=Henson Cargill - Mamas dont let your babies grow up to be cow
TTITLE15=boys
EXTD=
EXTT0=
EXTT1=
EXTT2=
EXTT3=
EXTT4=
EXTT5=
EXTT6=
EXTT7=
EXTT8=
EXTT9=
EXTT10=
EXTT11=
EXTT12=
EXTT13=
EXTT14=
EXTT15=
PLAYORDER=
